<?xml version="1.0" encoding="utf-8"?>
<!-- Generator: Adobe Illustrator 21.0.2, SVG Export Plug-In . SVG Version: 6.00 Build 0)  -->
<svg version="1.1" id="Шар_1" xmlns="http://www.w3.org/2000/svg" xmlns:xlink="http://www.w3.org/1999/xlink" x="0px" y="0px"
	 viewBox="0 0 480 480" style="enable-background:new 0 0 480 480;" xml:space="preserve">
<style type="text/css">
	.st0{fill:url(#SVGID_1_);}
	.st1{fill:#FFFFFF;}
	.st2{fill:url(#SVGID_2_);}
	.st3{fill:url(#SVGID_3_);}
</style>
<linearGradient id="SVGID_1_" gradientUnits="userSpaceOnUse" x1="10.7624" y1="419.5966" x2="477.4315" y2="54.0658">
	<stop  offset="0" style="stop-color:#9110FF"/>
	<stop  offset="1" style="stop-color:#FF0A32"/>
</linearGradient>
<path class="st0" d="M380,480H100.1c-55,0-100-45-100-100V100.1c0-55,45-100,100-100H380c55,0,100,45,100,100V380
	C480,435,435,480,380,480z"/>
<g>
	<path class="st1" d="M134.2,97.9c0-0.1,0-0.2,0-0.4C134.2,97.7,134.2,97.8,134.2,97.9C134.2,97.9,134.2,97.9,134.2,97.9z"/>
	<path class="st1" d="M96,59.4C96,59.4,96.1,59.4,96,59.4C96.1,59.4,96,59.4,96,59.4C96,59.4,96,59.4,96,59.4z"/>
	<path class="st1" d="M134.2,21.7C134.2,21.7,134.2,21.7,134.2,21.7C134,42.6,117,59.4,96.1,59.4c21,0,38.1,17.1,38.1,38.1
		c0-21,17-38.1,38-38.1c0,0,0,0,0,0C151.3,59.4,134.4,42.5,134.2,21.7z"/>
</g>
<g>
	<path class="st1" d="M240.4,461.2c0-0.1,0-0.2,0-0.3C240.4,461,240.4,461.1,240.4,461.2C240.4,461.2,240.4,461.2,240.4,461.2z"/>
	<path class="st1" d="M209.2,429.8C209.3,429.8,209.3,429.8,209.2,429.8C209.3,429.8,209.3,429.8,209.2,429.8
		C209.2,429.8,209.2,429.8,209.2,429.8z"/>
	<path class="st1" d="M240.4,399.1C240.4,399.1,240.4,399.1,240.4,399.1c-0.2,17-14,30.7-31.1,30.7c17.2,0,31.1,13.9,31.1,31.1
		c0-17.1,13.9-31,31-31.1c0,0,0,0,0,0C254.3,429.8,240.5,416.1,240.4,399.1z"/>
</g>
<g>
	<path class="st1" d="M349.2,72.5c0-0.1,0-0.2,0-0.3C349.2,72.3,349.2,72.4,349.2,72.5C349.2,72.5,349.2,72.5,349.2,72.5z"/>
	<path class="st1" d="M322.8,45.9C322.8,45.9,322.9,45.9,322.8,45.9C322.9,45.9,322.8,45.9,322.8,45.9
		C322.8,45.9,322.8,45.9,322.8,45.9z"/>
	<path class="st1" d="M349.2,19.8C349.2,19.8,349.2,19.8,349.2,19.8c-0.1,14.4-11.9,26.1-26.3,26.1c14.6,0,26.3,11.8,26.3,26.3
		c0-14.5,11.8-26.3,26.3-26.3c0,0,0,0,0,0C361.1,45.9,349.4,34.2,349.2,19.8z"/>
</g>
<path class="st1" d="M382.2,202.8H97.8c-22.8,0-41.4-18.6-41.4-41.4v0c0-22.8,18.6-41.4,41.4-41.4h284.4c22.8,0,41.4,18.6,41.4,41.4
	v0C423.6,184.2,405,202.8,382.2,202.8z"/>
<path class="st1" d="M379.6,388.7l-279.2,0c-24.2,0-44-19.8-44-44v-71c0-24.2,19.8-44,44-44h279.2c24.2,0,44,19.8,44,44v71
	C423.6,368.9,403.8,388.7,379.6,388.7z"/>
<linearGradient id="SVGID_2_" gradientUnits="userSpaceOnUse" x1="85.0971" y1="161.688" x2="175.2518" y2="161.688">
	<stop  offset="0" style="stop-color:#9110FF"/>
	<stop  offset="1" style="stop-color:#C70AAC"/>
</linearGradient>
<path class="st2" d="M156.7,180.3h-53c-10.2,0-18.6-8.4-18.6-18.6v0c0-10.2,8.4-18.6,18.6-18.6h53c10.2,0,18.6,8.4,18.6,18.6v0
	C175.3,171.9,166.9,180.3,156.7,180.3z"/>
<linearGradient id="SVGID_3_" gradientUnits="userSpaceOnUse" x1="85.0971" y1="278.3829" x2="268.2127" y2="278.3829">
	<stop  offset="0" style="stop-color:#9110FF"/>
	<stop  offset="1" style="stop-color:#C70AAC"/>
</linearGradient>
<path class="st3" d="M249.6,297H103.7c-10.2,0-18.6-8.4-18.6-18.6v0c0-10.2,8.4-18.6,18.6-18.6h145.9c10.2,0,18.6,8.4,18.6,18.6v0
	C268.2,288.6,259.8,297,249.6,297z"/>
</svg>
