<?xml version="1.0" encoding="UTF-8" standalone="no"?>
<svg xmlns="http://www.w3.org/2000/svg">
 <symbol id="i-textfield" viewBox="0 0 21 6">
  <path d="M3.000,0.000 L18.000,0.000 C19.657,0.000 21.000,1.343 21.000,3.000 C21.000,4.657 19.657,6.000 18.000,6.000 L3.000,6.000 C1.343,6.000 0.000,4.657 0.000,3.000 C0.000,1.343 1.343,0.000 3.000,0.000 Z" fill="currentColor"/>
 </symbol>
 <symbol id="i-plus" viewBox="0 0 11 11">
  <path d="M11.000,4.000 L7.000,4.000 L7.000,0.000 L4.000,0.000 L4.000,4.000 L-0.000,4.000 L-0.000,7.000 L4.000,7.000 L4.000,11.000 L7.000,11.000 L7.000,7.000 L11.000,7.000 L11.000,4.000 Z" fill="#1a74e8"/>
 </symbol>
 <symbol id="i-send" viewBox="0 0 20 10">
  <path d="M5.000,0.000 L15.000,0.000 C17.761,0.000 20.000,2.239 20.000,5.000 C20.000,7.761 17.761,10.000 15.000,10.000 L5.000,10.000 C2.239,10.000 0.000,7.761 0.000,5.000 C0.000,2.239 2.239,0.000 5.000,0.000 Z" fill="currentColor"/>
 </symbol>
 <symbol id="i-quiz" viewBox="0 0 19 16">
  <path d="M17.500,16.000 L6.500,16.000 C5.672,16.000 5.000,15.328 5.000,14.500 L5.000,13.500 C5.000,12.672 5.672,12.000 6.500,12.000 L17.500,12.000 C18.328,12.000 19.000,12.672 19.000,13.500 L19.000,14.500 C19.000,15.328 18.328,16.000 17.500,16.000 ZM17.500,10.000 L6.500,10.000 C5.672,10.000 5.000,9.328 5.000,8.500 L5.000,7.500 C5.000,6.672 5.672,6.000 6.500,6.000 L17.500,6.000 C18.328,6.000 19.000,6.672 19.000,7.500 L19.000,8.500 C19.000,9.328 18.328,10.000 17.500,10.000 ZM17.500,4.000 L6.500,4.000 C5.672,4.000 5.000,3.328 5.000,2.500 L5.000,1.500 C5.000,0.672 5.672,0.000 6.500,0.000 L17.500,0.000 C18.328,0.000 19.000,0.672 19.000,1.500 L19.000,2.500 C19.000,3.328 18.328,4.000 17.500,4.000 ZM2.000,16.000 C0.895,16.000 0.000,15.105 0.000,14.000 C0.000,12.895 0.895,12.000 2.000,12.000 C3.105,12.000 4.000,12.895 4.000,14.000 C4.000,15.105 3.105,16.000 2.000,16.000 ZM2.000,10.000 C0.895,10.000 0.000,9.105 0.000,8.000 C0.000,6.895 0.895,6.000 2.000,6.000 C3.105,6.000 4.000,6.895 4.000,8.000 C4.000,9.105 3.105,10.000 2.000,10.000 ZM2.000,4.000 C0.895,4.000 0.000,3.105 0.000,2.000 C0.000,0.895 0.895,0.000 2.000,0.000 C3.105,0.000 4.000,0.895 4.000,2.000 C4.000,3.105 3.105,4.000 2.000,4.000 Z" fill="currentColor"/>
 </symbol>
 <symbol id="i-file" viewBox="0 0 510 510">
  <path d="M102,0C73.95,0,51,22.95,51,51v408c0,28.05,22.95,51,51,51h306c28.05,0,51-22.95,51-51V153L306,0H102z M280.5,178.5V38.25 L420.75,178.5H280.5z" fill="currentColor"/>
 </symbol>
 <symbol id="i-data" viewBox="0 0 15 16">
  <path  d="M5.000,6.000 L7.000,6.000 L7.000,8.000 L5.000,8.000 L5.000,6.000 ZM8.000,6.000 L10.000,6.000 L10.000,8.000 L8.000,8.000 L8.000,6.000 ZM11.000,6.000 L13.000,6.000 L13.000,8.000 L11.000,8.000 L11.000,6.000 ZM2.000,12.000 L4.000,12.000 L4.000,14.000 L2.000,14.000 L2.000,12.000 ZM5.000,12.000 L7.000,12.000 L7.000,14.000 L5.000,14.000 L5.000,12.000 ZM8.000,12.000 L10.000,12.000 L10.000,14.000 L8.000,14.000 L8.000,12.000 ZM5.000,9.000 L7.000,9.000 L7.000,11.000 L5.000,11.000 L5.000,9.000 ZM8.000,9.000 L10.000,9.000 L10.000,11.000 L8.000,11.000 L8.000,9.000 ZM11.000,9.000 L13.000,9.000 L13.000,11.000 L11.000,11.000 L11.000,9.000 ZM2.000,9.000 L4.000,9.000 L4.000,11.000 L2.000,11.000 L2.000,9.000 ZM13.000,0.000 L13.000,1.000 L11.000,1.000 L11.000,0.000 L4.000,0.000 L4.000,1.000 L2.000,1.000 L2.000,0.000 L0.000,0.000 L0.000,16.000 L15.000,16.000 L15.000,0.000 L13.000,0.000 ZM14.000,15.000 L1.000,15.000 L1.000,4.000 L14.000,4.000 L14.000,15.000 Z" fill="currentColor"/>
 </symbol>
 <symbol id="i-password" viewBox="0 0 20 6">
  <path  d="M17.844,2.929 C17.726,2.967 17.601,2.992 17.469,3.004 C17.601,3.017 17.726,3.040 17.844,3.074 C17.962,3.108 18.080,3.160 18.198,3.228 L20.001,4.171 L19.542,4.871 L17.740,3.937 C17.615,3.869 17.504,3.801 17.406,3.732 C17.309,3.664 17.222,3.577 17.146,3.471 C17.257,3.676 17.313,3.903 17.313,4.152 L17.313,6.000 L16.396,6.000 L16.396,4.161 C16.396,4.037 16.404,3.922 16.422,3.816 C16.439,3.710 16.476,3.608 16.531,3.508 C16.455,3.595 16.371,3.673 16.281,3.741 C16.191,3.810 16.087,3.875 15.969,3.937 L14.177,4.861 L13.718,4.161 L15.510,3.228 C15.774,3.085 16.038,3.010 16.302,3.004 C16.163,2.992 16.029,2.968 15.901,2.934 C15.772,2.900 15.642,2.845 15.510,2.771 L13.708,1.828 L14.166,1.128 L15.969,2.061 C16.094,2.130 16.205,2.201 16.302,2.276 C16.399,2.351 16.486,2.441 16.562,2.547 C16.451,2.329 16.396,2.096 16.396,1.847 L16.396,-0.001 L17.313,-0.001 L17.313,1.837 C17.313,1.962 17.304,2.079 17.287,2.187 C17.269,2.296 17.233,2.401 17.177,2.500 C17.253,2.413 17.337,2.335 17.427,2.267 C17.517,2.198 17.622,2.130 17.740,2.061 L19.532,1.137 L19.990,1.837 L18.198,2.771 C18.080,2.839 17.962,2.892 17.844,2.929 ZM11.343,3.228 L13.145,4.171 L12.687,4.871 L10.884,3.937 C10.759,3.869 10.648,3.801 10.551,3.732 C10.453,3.664 10.367,3.577 10.290,3.471 C10.401,3.676 10.457,3.903 10.457,4.152 L10.457,6.000 L9.540,6.000 L9.540,4.161 C9.540,4.037 9.549,3.922 9.566,3.816 C9.583,3.710 9.620,3.608 9.676,3.508 C9.599,3.595 9.516,3.673 9.426,3.741 C9.335,3.810 9.231,3.875 9.113,3.937 L7.321,4.861 L6.863,4.161 L8.655,3.228 C8.918,3.085 9.182,3.010 9.446,3.004 C9.307,2.992 9.174,2.968 9.045,2.934 C8.917,2.900 8.786,2.845 8.655,2.771 L6.852,1.828 L7.311,1.128 L9.113,2.061 C9.238,2.130 9.349,2.201 9.446,2.276 C9.544,2.351 9.630,2.441 9.707,2.547 C9.596,2.329 9.540,2.096 9.540,1.847 L9.540,-0.001 L10.457,-0.001 L10.457,1.837 C10.457,1.962 10.448,2.079 10.431,2.187 C10.414,2.296 10.377,2.401 10.322,2.500 C10.398,2.413 10.481,2.335 10.572,2.267 C10.662,2.198 10.766,2.130 10.884,2.061 L12.676,1.137 L13.135,1.837 L11.343,2.771 C11.224,2.839 11.106,2.892 10.988,2.929 C10.870,2.967 10.745,2.992 10.613,3.004 C10.745,3.017 10.870,3.040 10.988,3.074 C11.106,3.108 11.224,3.160 11.343,3.228 ZM4.487,3.228 L6.289,4.171 L5.831,4.871 L4.029,3.937 C3.904,3.869 3.792,3.801 3.695,3.732 C3.598,3.664 3.511,3.577 3.435,3.471 C3.546,3.676 3.601,3.903 3.601,4.152 L3.601,6.000 L2.685,6.000 L2.685,4.161 C2.685,4.037 2.693,3.922 2.711,3.816 C2.728,3.710 2.764,3.608 2.820,3.508 C2.744,3.595 2.660,3.673 2.570,3.741 C2.480,3.810 2.375,3.875 2.257,3.937 L0.465,4.861 L0.007,4.161 L1.799,3.228 C2.063,3.085 2.327,3.010 2.591,3.004 C2.452,2.992 2.318,2.968 2.190,2.934 C2.061,2.900 1.931,2.845 1.799,2.771 L-0.003,1.828 L0.455,1.128 L2.257,2.061 C2.382,2.130 2.494,2.201 2.591,2.276 C2.688,2.351 2.775,2.441 2.851,2.547 C2.740,2.329 2.685,2.096 2.685,1.847 L2.685,-0.001 L3.601,-0.001 L3.601,1.837 C3.601,1.962 3.593,2.079 3.575,2.187 C3.558,2.296 3.522,2.401 3.466,2.500 C3.542,2.413 3.626,2.335 3.716,2.267 C3.806,2.198 3.910,2.130 4.029,2.061 L5.821,1.137 L6.279,1.837 L4.487,2.771 C4.369,2.839 4.251,2.892 4.133,2.929 C4.015,2.967 3.890,2.992 3.758,3.004 C3.890,3.017 4.015,3.040 4.133,3.074 C4.251,3.108 4.369,3.160 4.487,3.228 Z" fill="currentColor"/>
 </symbol>
 <symbol id="i-email" viewBox="0 0 512 512">
  <path d="M10.688,95.156C80.958,154.667,204.26,259.365,240.5,292.01c4.865,4.406,10.083,6.646,15.5,6.646 c5.406,0,10.615-2.219,15.469-6.604c36.271-32.677,159.573-137.385,229.844-196.896c4.375-3.698,5.042-10.198,1.5-14.719 C494.625,69.99,482.417,64,469.333,64H42.667c-13.083,0-25.292,5.99-33.479,16.438C5.646,84.958,6.313,91.458,10.688,95.156z" fill="currentColor"/>
<path d="M505.813,127.406c-3.781-1.76-8.229-1.146-11.375,1.542C416.51,195.01,317.052,279.688,285.76,307.885 c-17.563,15.854-41.938,15.854-59.542-0.021c-33.354-30.052-145.042-125-208.656-178.917c-3.167-2.688-7.625-3.281-11.375-1.542 C2.417,129.156,0,132.927,0,137.083v268.25C0,428.865,19.135,448,42.667,448h426.667C492.865,448,512,428.865,512,405.333 v-268.25C512,132.927,509.583,129.146,505.813,127.406z" fill="currentColor"/>
 </symbol>
 <symbol id="i-radiobutton" viewBox="0 0 510 510">
  <path d="M255,127.5c-71.4,0-127.5,56.1-127.5,127.5c0,71.4,56.1,127.5,127.5,127.5c71.4,0,127.5-56.1,127.5-127.5 C382.5,183.6,326.4,127.5,255,127.5z M255,0C114.75,0,0,114.75,0,255s114.75,255,255,255s255-114.75,255-255S395.25,0,255,0z M255,459c-112.2,0-204-91.8-204-204S142.8,51,255,51s204,91.8,204,204S367.2,459,255,459z" fill="currentColor"/>
 </symbol>
 <symbol id="i-checkbox" viewBox="0 0 16 16">
  <path d="M13.378,4.274 L6.992,10.412 C6.208,11.166 4.937,11.166 4.154,10.412 C3.822,10.093 3.661,9.686 3.611,9.270 L1.007,7.825 C0.047,7.292 -0.282,6.113 0.272,5.190 C0.826,4.267 2.054,3.951 3.014,4.484 L5.847,6.056 L10.539,1.546 C11.323,0.792 12.594,0.792 13.378,1.546 C14.161,2.299 14.161,3.520 13.378,4.274 Z" fill="currentColor"/>
 </symbol>
 <symbol id="i-phone" viewBox="0 0 348.077 348.077">
  <path d="M340.273,275.083l-53.755-53.761c-10.707-10.664-28.438-10.34-39.518,0.744l-27.082,27.076 c-1.711-0.943-3.482-1.928-5.344-2.973c-17.102-9.476-40.509-22.464-65.14-47.113c-24.704-24.701-37.704-48.144-47.209-65.257 c-1.003-1.813-1.964-3.561-2.913-5.221l18.176-18.149l8.936-8.947c11.097-11.1,11.403-28.826,0.721-39.521L73.39,8.194 C62.708-2.486,44.969-2.162,33.872,8.938l-15.15,15.237l0.414,0.411c-5.08,6.482-9.325,13.958-12.484,22.02 C3.74,54.28,1.927,61.603,1.098,68.941C-6,127.785,20.89,181.564,93.866,254.541c100.875,100.868,182.167,93.248,185.674,92.876 c7.638-0.913,14.958-2.738,22.397-5.627c7.992-3.122,15.463-7.361,21.941-12.43l0.331,0.294l15.348-15.029 C350.631,303.527,350.95,285.795,340.273,275.083z" fill="currentColor"/>
 </symbol>
</svg>